<svg width="344" height="60" viewBox="0 0 344 60" fill="none" xmlns="http://www.w3.org/2000/svg">
<g clip-path="url(#clip0)">
<g filter="url(#filter0_d)">
<path d="M66.2637 41.0838L64.8105 36.3971L55.9906 36.3563L54.5638 41.0298L48.2999 41.0008L56.3405 16.2697L64.8364 16.309L72.6356 41.1132L66.2637 41.0838ZM60.5254 21.8331L60.3454 21.8323L57.4553 31.287L63.3593 31.3143L60.5254 21.8331ZM82.8371 48.5764C81.7091 48.5712 80.5454 48.5179 79.3459 48.4163C78.1702 48.3389 77.1988 48.2264 76.4315 48.0788L76.4515 43.9749L78.1433 44.0187L81.4551 44.07C83.0151 44.0772 84.1075 43.9863 84.7324 43.7971C85.3573 43.632 85.7428 43.3098 85.8892 42.8305C86.0595 42.3513 86.1478 41.4757 86.154 40.2037L86.1613 38.6917L85.8734 38.6904C85.3893 39.5281 84.7143 40.137 83.8484 40.517C82.9827 40.873 81.9258 41.0482 80.6778 41.0424C79.1178 41.0352 77.9311 40.7657 77.1177 40.2339C76.3283 39.7023 75.804 38.9439 75.5448 37.9586C75.2857 36.9494 75.1603 35.5928 75.1686 33.8889L75.2228 22.765L81.0188 22.7918L80.9732 32.1517C80.9666 33.4956 81.01 34.4319 81.1035 34.9603C81.221 35.4648 81.4354 35.7898 81.7467 35.9353C82.058 36.0807 82.6337 36.1554 83.4737 36.1592C84.2896 36.163 84.8782 36.0577 85.2392 35.8434C85.6244 35.6052 85.8783 35.2223 86.0008 34.6949C86.1235 34.1435 86.1878 33.2678 86.1936 32.0678L86.2387 22.8159L92.0347 22.8426L91.9552 39.1505C91.9431 41.6224 91.7541 43.4816 91.388 44.7279C91.0218 45.9982 90.1891 46.9544 88.89 47.5964C87.6147 48.2625 85.5971 48.5892 82.8371 48.5764ZM100.795 41.5313C98.9949 41.523 97.665 41.0848 96.8053 40.2169C95.9455 39.3489 95.5204 37.9309 95.53 35.9629C95.537 34.5229 95.7104 33.4077 96.0503 32.6173C96.3901 31.8269 96.9689 31.2535 97.7867 30.8973C98.6284 30.5412 99.8293 30.3667 101.389 30.3739C102.565 30.3794 104.257 30.4352 106.465 30.5414L106.468 29.8934C106.472 28.9814 106.367 28.3449 106.153 27.9839C105.963 27.599 105.58 27.3573 105.005 27.2586C104.453 27.16 103.457 27.1074 102.017 27.1008C100.217 27.0925 98.4288 27.1802 96.6519 27.364L96.6722 23.1881C98.9302 22.7905 101.331 22.5976 103.875 22.6093C106.395 22.621 108.242 22.8935 109.415 23.4269C110.613 23.9605 111.389 24.7441 111.744 25.7777C112.099 26.8114 112.272 28.3002 112.262 30.2441L112.208 41.296L106.664 41.2704L106.531 39.1458L106.243 39.1444C105.614 40.1255 104.855 40.77 103.965 41.0779C103.076 41.3858 102.019 41.537 100.795 41.5313ZM103.551 37.332C104.223 37.3351 104.752 37.2655 105.136 37.1233C105.521 36.9811 105.822 36.7305 106.04 36.3715C106.306 35.9167 106.442 35.1733 106.447 34.1413L106.45 33.4213L103.175 33.4062C102.527 33.4032 102.058 33.4491 101.77 33.5437C101.481 33.6384 101.276 33.8294 101.155 34.1169C101.058 34.3804 101.008 34.8242 101.005 35.4482C101.002 35.9762 101.06 36.3725 101.179 36.637C101.297 36.9016 101.525 37.0826 101.86 37.1802C102.22 37.2778 102.783 37.3284 103.551 37.332ZM118.313 41.3242L118.38 27.4644L115.068 27.4491L115.09 22.9491L118.402 22.9644L118.428 17.6365L124.296 17.6636L124.27 22.9915L128.23 23.0098L128.208 27.5098L124.248 27.4915L124.181 41.3513L118.313 41.3242Z" fill="black"/>
<path d="M147.157 41.4574L145.704 36.7707L136.884 36.7299L135.457 41.4034L129.194 41.3745L137.234 16.6433L145.73 16.6826L153.529 41.4869L147.157 41.4574ZM141.419 22.2067L141.239 22.2059L138.349 31.6606L144.253 31.6879L141.419 22.2067ZM168.988 41.2343C167.186 41.6339 165.326 41.8294 163.406 41.8205C160.982 41.8093 159.195 41.453 158.047 40.7517C156.922 40.0265 156.207 39.0272 155.901 37.7538C155.595 36.4804 155.448 34.6677 155.46 32.3157C155.471 30.0357 155.636 28.2605 155.954 26.9899C156.296 25.6955 157.033 24.6909 158.164 23.9761C159.32 23.2374 161.086 22.8736 163.462 22.8845C165.526 22.8941 167.349 23.1065 168.931 23.5218L168.91 27.6978C167.615 27.4998 166.308 27.3977 164.988 27.3916C163.86 27.3864 163.043 27.5147 162.538 27.7763C162.057 28.0141 161.731 28.4566 161.559 29.1038C161.412 29.7511 161.335 30.8308 161.328 32.3428C161.32 33.8548 161.387 34.9471 161.528 35.6197C161.693 36.2685 162.014 36.714 162.493 36.9562C162.996 37.1985 163.823 37.3224 164.975 37.3277C166.247 37.3336 167.592 37.2438 169.009 37.0583L168.988 41.2343ZM177.083 41.8837C175.283 41.8753 173.953 41.4372 173.094 40.5692C172.234 39.7012 171.809 38.2833 171.818 36.3153C171.825 34.8753 171.999 33.7601 172.339 32.9696C172.678 32.1792 173.257 31.6059 174.075 31.2496C174.917 30.8935 176.118 30.7191 177.678 30.7263C178.854 30.7317 180.545 30.7875 182.753 30.8937L182.756 30.2457C182.76 29.3337 182.655 28.6973 182.441 28.3363C182.251 27.9514 181.868 27.7096 181.293 27.6109C180.741 27.5124 179.745 27.4598 178.305 27.4531C176.506 27.4448 174.717 27.5326 172.94 27.7164L172.96 23.5404C175.218 23.1428 177.619 22.9499 180.163 22.9617C182.683 22.9733 184.53 23.2459 185.703 23.7793C186.901 24.3128 187.677 25.0964 188.032 26.1301C188.387 27.1637 188.56 28.6525 188.55 30.5965L188.496 41.6484L182.952 41.6228L182.819 39.4981L182.531 39.4968C181.902 40.4779 181.143 41.1224 180.253 41.4303C179.364 41.7382 178.307 41.8893 177.083 41.8837ZM179.84 37.6843C180.512 37.6874 181.04 37.6179 181.425 37.4757C181.809 37.3334 182.111 37.0828 182.328 36.7238C182.595 36.2691 182.73 35.5257 182.735 34.4937L182.739 33.7737L179.463 33.7586C178.815 33.7556 178.347 33.8014 178.058 33.8961C177.77 33.9907 177.565 34.1818 177.443 34.4692C177.346 34.7328 177.296 35.1766 177.293 35.8006C177.29 36.3286 177.348 36.7248 177.467 36.9894C177.586 37.2539 177.813 37.435 178.148 37.5325C178.508 37.6302 179.072 37.6808 179.84 37.6843ZM198.339 41.9818C196.851 41.975 195.677 41.6935 194.815 41.1375C193.978 40.5817 193.359 39.6308 192.957 38.2849C192.556 36.9151 192.361 35.0061 192.373 32.5582C192.385 30.0862 192.586 28.1671 192.977 26.8009C193.392 25.4348 194.02 24.4777 194.863 23.9296C195.73 23.3576 196.907 23.075 198.395 23.0819C199.619 23.0875 200.639 23.2483 201.453 23.564C202.292 23.8559 202.973 24.435 203.497 25.3015L203.785 25.3028L203.835 14.9709L209.631 14.9977L209.501 41.7454L203.993 41.7199L203.859 39.5593L203.571 39.558C203.063 40.4916 202.363 41.1364 201.474 41.4923C200.584 41.8242 199.539 41.9874 198.339 41.9818ZM200.955 37.0979C201.699 37.1013 202.251 37.0198 202.612 36.8535C202.973 36.6632 203.239 36.3404 203.409 35.8852C203.555 35.5019 203.641 35.0582 203.667 34.5544C203.718 34.0506 203.745 33.3787 203.749 32.5387C203.757 30.9547 203.666 29.8743 203.477 29.2974C203.312 28.7927 203.049 28.4554 202.69 28.2858C202.331 28.0921 201.767 27.9935 200.999 27.99C200.087 27.9858 199.451 28.0788 199.09 28.2692C198.729 28.4355 198.487 28.8184 198.364 29.4178C198.242 29.9933 198.177 31.025 198.169 32.5129C198.162 34.0249 198.217 35.0812 198.334 35.6817C198.451 36.2583 198.689 36.6434 199.048 36.8371C199.407 37.0067 200.043 37.0936 200.955 37.0979ZM230.059 34.1002L219.079 34.0495C219.074 35.2015 219.154 36.0059 219.32 36.4627C219.509 36.9196 219.904 37.2214 220.503 37.3681C221.126 37.515 222.23 37.5921 223.814 37.5994C225.518 37.6073 227.354 37.5198 229.323 37.3369L229.303 41.4768C228.534 41.6653 227.502 41.8165 226.205 41.9305C224.932 42.0447 223.672 42.0988 222.424 42.0931C219.616 42.0801 217.566 41.7706 216.273 41.1647C215.004 40.5348 214.192 39.595 213.838 38.3454C213.484 37.0957 213.314 35.1869 213.326 32.619C213.338 30.099 213.528 28.2038 213.894 26.9335C214.26 25.6632 215.045 24.7188 216.248 24.1004C217.475 23.458 219.384 23.1428 221.976 23.1548C224.568 23.1668 226.427 23.4874 227.552 24.1166C228.701 24.7219 229.404 25.6371 229.662 26.8623C229.945 28.0637 230.079 30.0083 230.066 32.6963L230.059 34.1002ZM221.92 27.3666C221.056 27.3626 220.431 27.4437 220.047 27.6099C219.662 27.7762 219.408 28.111 219.286 28.6144C219.163 29.0939 219.099 29.9096 219.094 31.0616L224.638 31.0872C224.643 29.9352 224.575 29.1069 224.434 28.6022C224.292 28.0976 224.042 27.7724 223.683 27.6267C223.323 27.4571 222.736 27.3704 221.92 27.3666ZM254.897 32.2709C254.904 30.951 254.86 30.0268 254.767 29.4983C254.673 28.9459 254.483 28.597 254.196 28.4517C253.908 28.3063 253.393 28.232 252.649 28.2285C251.881 28.225 251.328 28.3304 250.991 28.5449C250.678 28.7594 250.46 29.1424 250.338 29.6939C250.239 30.2454 250.187 31.1332 250.181 32.3572L250.134 41.9331L244.374 41.9064L244.421 32.2226C244.428 30.9026 244.384 29.9784 244.291 29.4499C244.197 28.8975 244.007 28.5486 243.72 28.4033C243.433 28.258 242.917 28.1836 242.173 28.1801C241.429 28.1767 240.888 28.2942 240.551 28.5326C240.214 28.7471 239.984 29.13 239.862 29.6815C239.763 30.209 239.711 31.0848 239.705 32.3088L239.658 41.8847L233.862 41.8579L233.952 23.4981L239.46 23.5236L239.593 25.7202L239.881 25.7215C240.825 24.0699 242.533 23.2497 245.005 23.2612C246.421 23.2677 247.5 23.4767 248.242 23.8881C248.984 24.2756 249.521 24.902 249.853 25.7676L250.177 25.7691C251.121 24.1174 252.853 23.2974 255.373 23.309C256.861 23.3159 257.987 23.5971 258.753 24.1527C259.518 24.6842 260.03 25.4546 260.289 26.4638C260.573 27.4731 260.71 28.8178 260.702 30.4977L260.646 41.9816L254.85 41.9548L254.897 32.2709ZM272.749 49.4536C271.621 49.4484 270.457 49.395 269.258 49.2935C268.082 49.216 267.111 49.1035 266.344 48.956L266.364 44.852L268.055 44.8959L271.367 44.9472C272.927 44.9544 274.02 44.8634 274.644 44.6743C275.269 44.5092 275.655 44.1869 275.801 43.7076C275.972 43.2284 276.06 42.3528 276.066 41.0808L276.073 39.5688L275.785 39.5675C275.301 40.4053 274.626 41.0142 273.76 41.3942C272.895 41.7502 271.838 41.9253 270.59 41.9195C269.03 41.9123 267.843 41.6428 267.03 41.1111C266.24 40.5794 265.716 39.821 265.457 38.8358C265.198 37.8266 265.072 36.47 265.081 34.766L265.135 23.6421L270.931 23.6689L270.885 33.0288C270.879 34.3728 270.922 35.309 271.016 35.8374C271.133 36.342 271.347 36.667 271.659 36.8124C271.97 36.9579 272.546 37.0325 273.386 37.0364C274.202 37.0402 274.79 36.9349 275.151 36.7205C275.536 36.4823 275.79 36.0995 275.913 35.572C276.036 35.0206 276.1 34.1449 276.106 32.9449L276.151 23.693L281.947 23.7198L281.867 40.0276C281.855 42.4996 281.666 44.3587 281.3 45.605C280.934 46.8754 280.101 47.8315 278.802 48.4735C277.527 49.1396 275.509 49.4663 272.749 49.4536Z" fill="#FF5773"/>
</g>
</g>
<path d="M35.8244 32.8847H34.6252C34.4701 32.8847 34.3214 32.9488 34.2118 33.0629C34.1021 33.177 34.0405 33.3317 34.0405 33.4931C34.0405 33.6545 34.1021 33.8093 34.2118 33.9234C34.3214 34.0375 34.4701 34.1016 34.6252 34.1016H35.8244C35.9794 34.1016 36.1282 34.0375 36.2378 33.9234C36.3474 33.8093 36.409 33.6545 36.409 33.4931C36.409 33.3317 36.3474 33.177 36.2378 33.0629C36.1282 32.9488 35.9794 32.8847 35.8244 32.8847ZM41.0058 32.937H39.8066C39.6515 32.937 39.5028 33.0011 39.3932 33.1152C39.2835 33.2293 39.2219 33.3841 39.2219 33.5454C39.2219 33.7068 39.2835 33.8616 39.3932 33.9757C39.5028 34.0898 39.6515 34.1539 39.8066 34.1539H41.0058C41.1608 34.1539 41.3095 34.0898 41.4192 33.9757C41.5288 33.8616 41.5904 33.7068 41.5904 33.5454C41.5904 33.3841 41.5288 33.2293 41.4192 33.1152C41.3095 33.0011 41.1608 32.937 41.0058 32.937ZM37.8737 34.3042C37.7186 34.3042 37.5699 34.3683 37.4602 34.4824C37.3506 34.5965 37.289 34.7513 37.289 34.9126V36.1606C37.289 36.322 37.3506 36.4767 37.4602 36.5908C37.5699 36.7049 37.7186 36.769 37.8737 36.769C38.0287 36.769 38.1774 36.7049 38.2871 36.5908C38.3967 36.4767 38.4583 36.322 38.4583 36.1606V34.9126C38.4583 34.7513 38.3967 34.5965 38.2871 34.4824C38.1774 34.3683 38.0287 34.3042 37.8737 34.3042Z" fill="#FF5773"/>
<path d="M41.2981 33.3366C41.4842 33.3366 41.6628 33.2613 41.7944 33.1272C41.926 32.9932 42 32.8114 42 32.6218V24.3437C42 24.0456 41.8182 23.779 41.5445 23.6739L21.5006 16.0456C21.3423 15.9848 21.1676 15.9848 21.0093 16.0456L0.966165 23.6746C0.860364 23.6308 0.74567 23.614 0.632034 23.6256C0.518398 23.6372 0.409253 23.6768 0.314067 23.7411C0.218882 23.8053 0.140531 23.8923 0.0858128 23.9944C0.0310948 24.0964 0.00166202 24.2106 6.83579e-05 24.3269C-0.0015253 24.4432 0.0247682 24.5581 0.0766676 24.6617C0.128567 24.7653 0.204505 24.8544 0.297892 24.9214C0.39128 24.9883 0.499296 25.031 0.612571 25.0458C0.725845 25.0606 0.840956 25.0471 0.947915 25.0063L7.73331 27.809V38.842C7.73331 41.6991 14.7461 43 21.262 43C27.7778 43 34.7907 41.6991 34.7907 38.842V27.977L38.4013 26.5324C38.4872 26.4982 38.5656 26.4471 38.632 26.382C38.6984 26.3169 38.7516 26.2391 38.7884 26.1531C38.8253 26.067 38.8451 25.9744 38.8467 25.8805C38.8483 25.7866 38.8317 25.6933 38.7979 25.606C38.7643 25.5186 38.7141 25.4387 38.6502 25.3711C38.5863 25.3034 38.5099 25.2493 38.4254 25.2118C38.3409 25.1742 38.2499 25.1541 38.1577 25.1524C38.0655 25.1508 37.9739 25.1677 37.8882 25.2022L21.2585 31.8527L3.1456 24.3708L21.255 17.4773L40.5969 24.8398V32.6218C40.5967 32.7157 40.6147 32.8086 40.6499 32.8954C40.685 32.9822 40.7367 33.061 40.8018 33.1274C40.8669 33.1938 40.9443 33.2465 41.0295 33.2824C41.1146 33.3183 41.2059 33.3367 41.2981 33.3366V33.3366ZM21.255 33.3366C21.342 33.3366 21.429 33.3202 21.5119 33.2873L33.3875 28.5374V38.8413C33.3875 39.7677 29.108 41.5697 21.2627 41.5697C13.4174 41.5697 9.13784 39.7677 9.13784 38.8413V28.3887L20.991 33.2844C21.0753 33.3194 21.1651 33.3366 21.255 33.3366Z" fill="#FF5773"/>
<defs>
<filter id="filter0_d" x="42.2999" y="14.9709" width="245.647" height="47.483" filterUnits="userSpaceOnUse" color-interpolation-filters="sRGB">
<feFlood flood-opacity="0" result="BackgroundImageFix"/>
<feColorMatrix in="SourceAlpha" type="matrix" values="0 0 0 0 0 0 0 0 0 0 0 0 0 0 0 0 0 0 127 0"/>
<feOffset dy="7"/>
<feGaussianBlur stdDeviation="3"/>
<feColorMatrix type="matrix" values="0 0 0 0 0 0 0 0 0 0 0 0 0 0 0 0 0 0 0.29 0"/>
<feBlend mode="normal" in2="BackgroundImageFix" result="effect1_dropShadow"/>
<feBlend mode="normal" in="SourceGraphic" in2="effect1_dropShadow" result="shape"/>
</filter>
<clipPath id="clip0">
<rect width="300" height="60" fill="white" transform="translate(44)"/>
</clipPath>
</defs>
</svg>
