<svg width="308" height="54" viewBox="0 0 308 54" fill="none" xmlns="http://www.w3.org/2000/svg">
<path d="M58.9966 34.2521H57.1726C56.9367 34.2521 56.7105 34.3269 56.5438 34.4601C56.377 34.5934 56.2833 34.7741 56.2833 34.9625C56.2833 35.1509 56.377 35.3316 56.5438 35.4648C56.7105 35.598 56.9367 35.6729 57.1726 35.6729H58.9966C59.2324 35.6729 59.4586 35.598 59.6254 35.4648C59.7922 35.3316 59.8859 35.1509 59.8859 34.9625C59.8859 34.7741 59.7922 34.5934 59.6254 34.4601C59.4586 34.3269 59.2324 34.2521 58.9966 34.2521ZM66.8776 34.3132H65.0536C64.8178 34.3132 64.5916 34.388 64.4248 34.5212C64.258 34.6545 64.1643 34.8352 64.1643 35.0236C64.1643 35.212 64.258 35.3927 64.4248 35.5259C64.5916 35.6591 64.8178 35.734 65.0536 35.734H66.8776C67.1135 35.734 67.3397 35.6591 67.5064 35.5259C67.6732 35.3927 67.7669 35.212 67.7669 35.0236C67.7669 34.8352 67.6732 34.6545 67.5064 34.5212C67.3397 34.388 67.1135 34.3132 66.8776 34.3132ZM62.1136 35.9094C61.8777 35.9094 61.6515 35.9843 61.4848 36.1175C61.318 36.2507 61.2243 36.4314 61.2243 36.6198V38.0768C61.2243 38.2652 61.318 38.4459 61.4848 38.5791C61.6515 38.7124 61.8777 38.7872 62.1136 38.7872C62.3494 38.7872 62.5756 38.7124 62.7424 38.5791C62.9092 38.4459 63.0029 38.2652 63.0029 38.0768V36.6198C63.0029 36.4314 62.9092 36.2507 62.7424 36.1175C62.5756 35.9843 62.3494 35.9094 62.1136 35.9094Z" fill="#FF5773"/>
<path d="M89.6475 30.8955C89.4814 33.1904 88.6318 34.9971 87.0986 36.3154C85.5752 37.6338 83.5635 38.293 81.0635 38.293C78.3291 38.293 76.1758 37.375 74.6035 35.5391C73.041 33.6934 72.2598 31.1641 72.2598 27.9512V26.6475C72.2598 24.5967 72.6211 22.79 73.3438 21.2275C74.0664 19.665 75.0967 18.4688 76.4346 17.6387C77.7822 16.7988 79.3447 16.3789 81.1221 16.3789C83.583 16.3789 85.5654 17.0381 87.0693 18.3564C88.5732 19.6748 89.4424 21.5254 89.6768 23.9082H85.2822C85.1748 22.5312 84.7891 21.5352 84.125 20.9199C83.4707 20.2949 82.4697 19.9824 81.1221 19.9824C79.6572 19.9824 78.5586 20.5098 77.8262 21.5645C77.1035 22.6094 76.7324 24.2354 76.7129 26.4424V28.0537C76.7129 30.3584 77.0596 32.043 77.7529 33.1074C78.4561 34.1719 79.5596 34.7041 81.0635 34.7041C82.4209 34.7041 83.4316 34.3965 84.0957 33.7812C84.7695 33.1562 85.1553 32.1943 85.2529 30.8955H89.6475ZM91.5957 29.9287C91.5957 28.3564 91.8984 26.9551 92.5039 25.7246C93.1094 24.4941 93.9785 23.542 95.1113 22.8682C96.2539 22.1943 97.5771 21.8574 99.0811 21.8574C101.22 21.8574 102.963 22.5117 104.311 23.8203C105.668 25.1289 106.425 26.9062 106.581 29.1523L106.61 30.2363C106.61 32.668 105.932 34.6211 104.574 36.0957C103.217 37.5605 101.396 38.293 99.1104 38.293C96.8252 38.293 94.999 37.5605 93.6318 36.0957C92.2744 34.6309 91.5957 32.6387 91.5957 30.1191V29.9287ZM95.8291 30.2363C95.8291 31.7402 96.1123 32.8926 96.6787 33.6934C97.2451 34.4844 98.0557 34.8799 99.1104 34.8799C100.136 34.8799 100.937 34.4893 101.513 33.708C102.089 32.917 102.377 31.6572 102.377 29.9287C102.377 28.4541 102.089 27.3115 101.513 26.501C100.937 25.6904 100.126 25.2852 99.0811 25.2852C98.0459 25.2852 97.2451 25.6904 96.6787 26.501C96.1123 27.3018 95.8291 28.5469 95.8291 30.2363ZM118.71 36.3887C117.665 37.6582 116.22 38.293 114.374 38.293C112.675 38.293 111.376 37.8047 110.478 36.8281C109.589 35.8516 109.135 34.4209 109.115 32.5361V22.1504H113.349V32.3896C113.349 34.04 114.101 34.8652 115.604 34.8652C117.04 34.8652 118.026 34.3672 118.563 33.3711V22.1504H122.812V38H118.827L118.71 36.3887ZM134.911 26.1201C134.335 26.042 133.827 26.0029 133.388 26.0029C131.786 26.0029 130.736 26.5449 130.238 27.6289V38H126.005V22.1504H130.004L130.121 24.04C130.971 22.585 132.147 21.8574 133.651 21.8574C134.12 21.8574 134.56 21.9209 134.97 22.0479L134.911 26.1201ZM145.546 33.6201C145.546 33.1025 145.287 32.6973 144.77 32.4043C144.262 32.1016 143.441 31.833 142.309 31.5986C138.539 30.8076 136.654 29.2061 136.654 26.7939C136.654 25.3877 137.235 24.2158 138.397 23.2783C139.569 22.3311 141.098 21.8574 142.982 21.8574C144.994 21.8574 146.601 22.3311 147.802 23.2783C149.013 24.2256 149.618 25.4561 149.618 26.9697H145.385C145.385 26.3643 145.189 25.8662 144.799 25.4756C144.408 25.0752 143.798 24.875 142.968 24.875C142.255 24.875 141.703 25.0361 141.312 25.3584C140.922 25.6807 140.727 26.0908 140.727 26.5889C140.727 27.0576 140.946 27.4385 141.386 27.7314C141.835 28.0146 142.587 28.2637 143.642 28.4785C144.696 28.6836 145.585 28.918 146.308 29.1816C148.544 30.002 149.662 31.4229 149.662 33.4443C149.662 34.8896 149.042 36.0615 147.802 36.96C146.562 37.8486 144.96 38.293 142.997 38.293C141.669 38.293 140.487 38.0586 139.452 37.5898C138.427 37.1113 137.621 36.4619 137.035 35.6416C136.449 34.8115 136.156 33.918 136.156 32.9609H140.17C140.209 33.7129 140.487 34.2891 141.005 34.6895C141.522 35.0898 142.216 35.29 143.085 35.29C143.896 35.29 144.506 35.1387 144.916 34.8359C145.336 34.5234 145.546 34.1182 145.546 33.6201ZM161.586 38C161.391 37.6191 161.249 37.1455 161.161 36.5791C160.136 37.7217 158.803 38.293 157.162 38.293C155.609 38.293 154.32 37.8438 153.295 36.9453C152.279 36.0469 151.771 34.9141 151.771 33.5469C151.771 31.8672 152.392 30.5781 153.632 29.6797C154.882 28.7812 156.684 28.3271 159.037 28.3174H160.985V27.4092C160.985 26.6768 160.795 26.0908 160.414 25.6514C160.043 25.2119 159.452 24.9922 158.642 24.9922C157.929 24.9922 157.367 25.1631 156.957 25.5049C156.557 25.8467 156.356 26.3154 156.356 26.9111H152.123C152.123 25.9932 152.406 25.1436 152.973 24.3623C153.539 23.5811 154.34 22.9707 155.375 22.5312C156.41 22.082 157.572 21.8574 158.861 21.8574C160.814 21.8574 162.362 22.3506 163.505 23.3369C164.657 24.3135 165.233 25.6904 165.233 27.4678V34.3379C165.243 35.8418 165.453 36.9795 165.863 37.751V38H161.586ZM158.085 35.0557C158.71 35.0557 159.286 34.9189 159.813 34.6455C160.341 34.3623 160.731 33.9863 160.985 33.5176V30.793H159.403C157.284 30.793 156.156 31.5254 156.02 32.9902L156.005 33.2393C156.005 33.7666 156.19 34.2012 156.562 34.543C156.933 34.8848 157.44 35.0557 158.085 35.0557ZM173.554 18.2539V22.1504H176.264V25.2559H173.554V33.166C173.554 33.752 173.666 34.1719 173.891 34.4258C174.115 34.6797 174.545 34.8066 175.18 34.8066C175.648 34.8066 176.063 34.7725 176.425 34.7041V37.9121C175.595 38.166 174.74 38.293 173.861 38.293C170.893 38.293 169.379 36.7939 169.32 33.7959V25.2559H167.006V22.1504H169.32V18.2539H173.554Z" fill="black"/>
<path d="M178.9 38V16.6719H186.371C188.959 16.6719 190.922 17.1699 192.26 18.166C193.598 19.1523 194.267 20.6025 194.267 22.5166C194.267 23.5615 193.998 24.4844 193.461 25.2852C192.924 26.0762 192.177 26.6572 191.22 27.0283C192.313 27.3018 193.173 27.8535 193.798 28.6836C194.433 29.5137 194.75 30.5293 194.75 31.7305C194.75 33.7812 194.096 35.334 192.787 36.3887C191.479 37.4434 189.613 37.9805 187.191 38H178.9ZM183.295 28.7129V34.4697H187.06C188.095 34.4697 188.9 34.2256 189.477 33.7373C190.062 33.2393 190.355 32.5557 190.355 31.6865C190.355 29.7334 189.345 28.7422 187.323 28.7129H183.295ZM183.295 25.6074H186.547C188.764 25.5684 189.872 24.6846 189.872 22.9561C189.872 21.9893 189.589 21.2959 189.022 20.876C188.466 20.4463 187.582 20.2314 186.371 20.2314H183.295V25.6074ZM206.967 38C206.771 37.6191 206.63 37.1455 206.542 36.5791C205.517 37.7217 204.184 38.293 202.543 38.293C200.99 38.293 199.701 37.8438 198.676 36.9453C197.66 36.0469 197.152 34.9141 197.152 33.5469C197.152 31.8672 197.772 30.5781 199.013 29.6797C200.263 28.7812 202.064 28.3271 204.418 28.3174H206.366V27.4092C206.366 26.6768 206.176 26.0908 205.795 25.6514C205.424 25.2119 204.833 24.9922 204.022 24.9922C203.31 24.9922 202.748 25.1631 202.338 25.5049C201.938 25.8467 201.737 26.3154 201.737 26.9111H197.504C197.504 25.9932 197.787 25.1436 198.354 24.3623C198.92 23.5811 199.721 22.9707 200.756 22.5312C201.791 22.082 202.953 21.8574 204.242 21.8574C206.195 21.8574 207.743 22.3506 208.886 23.3369C210.038 24.3135 210.614 25.6904 210.614 27.4678V34.3379C210.624 35.8418 210.834 36.9795 211.244 37.751V38H206.967ZM203.466 35.0557C204.091 35.0557 204.667 34.9189 205.194 34.6455C205.722 34.3623 206.112 33.9863 206.366 33.5176V30.793H204.784C202.665 30.793 201.537 31.5254 201.4 32.9902L201.386 33.2393C201.386 33.7666 201.571 34.2012 201.942 34.543C202.313 34.8848 202.821 35.0557 203.466 35.0557ZM222.772 26.1201C222.196 26.042 221.688 26.0029 221.249 26.0029C219.647 26.0029 218.598 26.5449 218.1 27.6289V38H213.866V22.1504H217.865L217.982 24.04C218.832 22.585 220.009 21.8574 221.513 21.8574C221.981 21.8574 222.421 21.9209 222.831 22.0479L222.772 26.1201ZM228.793 22.1504L228.925 23.9229C230.048 22.5459 231.566 21.8574 233.48 21.8574C235.521 21.8574 236.923 22.6631 237.685 24.2744C238.798 22.6631 240.385 21.8574 242.445 21.8574C244.164 21.8574 245.443 22.3604 246.283 23.3662C247.123 24.3623 247.543 25.8662 247.543 27.8779V38H243.295V27.8926C243.295 26.9941 243.119 26.3398 242.768 25.9297C242.416 25.5098 241.796 25.2998 240.907 25.2998C239.638 25.2998 238.759 25.9053 238.271 27.1162L238.285 38H234.052V27.9072C234.052 26.9893 233.871 26.3252 233.51 25.915C233.148 25.5049 232.533 25.2998 231.664 25.2998C230.463 25.2998 229.594 25.7979 229.057 26.7939V38H224.823V22.1504H228.793ZM259.994 38C259.799 37.6191 259.657 37.1455 259.569 36.5791C258.544 37.7217 257.211 38.293 255.57 38.293C254.018 38.293 252.729 37.8438 251.703 36.9453C250.688 36.0469 250.18 34.9141 250.18 33.5469C250.18 31.8672 250.8 30.5781 252.04 29.6797C253.29 28.7812 255.092 28.3271 257.445 28.3174H259.394V27.4092C259.394 26.6768 259.203 26.0908 258.822 25.6514C258.451 25.2119 257.86 24.9922 257.05 24.9922C256.337 24.9922 255.775 25.1631 255.365 25.5049C254.965 25.8467 254.765 26.3154 254.765 26.9111H250.531C250.531 25.9932 250.814 25.1436 251.381 24.3623C251.947 23.5811 252.748 22.9707 253.783 22.5312C254.818 22.082 255.98 21.8574 257.27 21.8574C259.223 21.8574 260.771 22.3506 261.913 23.3369C263.065 24.3135 263.642 25.6904 263.642 27.4678V34.3379C263.651 35.8418 263.861 36.9795 264.271 37.751V38H259.994ZM256.493 35.0557C257.118 35.0557 257.694 34.9189 258.222 34.6455C258.749 34.3623 259.14 33.9863 259.394 33.5176V30.793H257.812C255.692 30.793 254.564 31.5254 254.428 32.9902L254.413 33.2393C254.413 33.7666 254.599 34.2012 254.97 34.543C255.341 34.8848 255.849 35.0557 256.493 35.0557ZM271.376 22.1504V38.8643C271.376 40.6123 270.912 41.9697 269.984 42.9365C269.057 43.9131 267.719 44.4014 265.971 44.4014C265.238 44.4014 264.54 44.3184 263.876 44.1523V40.7979C264.384 40.8857 264.828 40.9297 265.209 40.9297C266.488 40.9297 267.128 40.251 267.128 38.8936V22.1504H271.376ZM266.791 18.0488C266.791 17.4141 267.001 16.8916 267.421 16.4814C267.851 16.0713 268.432 15.8662 269.164 15.8662C269.896 15.8662 270.473 16.0713 270.893 16.4814C271.322 16.8916 271.537 17.4141 271.537 18.0488C271.537 18.6934 271.317 19.2207 270.878 19.6309C270.448 20.041 269.877 20.2461 269.164 20.2461C268.451 20.2461 267.875 20.041 267.436 19.6309C267.006 19.2207 266.791 18.6934 266.791 18.0488ZM283.871 38C283.676 37.6191 283.534 37.1455 283.446 36.5791C282.421 37.7217 281.088 38.293 279.447 38.293C277.895 38.293 276.605 37.8438 275.58 36.9453C274.564 36.0469 274.057 34.9141 274.057 33.5469C274.057 31.8672 274.677 30.5781 275.917 29.6797C277.167 28.7812 278.969 28.3271 281.322 28.3174H283.271V27.4092C283.271 26.6768 283.08 26.0908 282.699 25.6514C282.328 25.2119 281.737 24.9922 280.927 24.9922C280.214 24.9922 279.652 25.1631 279.242 25.5049C278.842 25.8467 278.642 26.3154 278.642 26.9111H274.408C274.408 25.9932 274.691 25.1436 275.258 24.3623C275.824 23.5811 276.625 22.9707 277.66 22.5312C278.695 22.082 279.857 21.8574 281.146 21.8574C283.1 21.8574 284.647 22.3506 285.79 23.3369C286.942 24.3135 287.519 25.6904 287.519 27.4678V34.3379C287.528 35.8418 287.738 36.9795 288.148 37.751V38H283.871ZM280.37 35.0557C280.995 35.0557 281.571 34.9189 282.099 34.6455C282.626 34.3623 283.017 33.9863 283.271 33.5176V30.793H281.688C279.569 30.793 278.441 31.5254 278.305 32.9902L278.29 33.2393C278.29 33.7666 278.476 34.2012 278.847 34.543C279.218 34.8848 279.726 35.0557 280.37 35.0557Z" fill="#FF5773"/>
<path d="M61.4945 31.8133C61.7311 31.8133 61.958 31.7272 62.1253 31.574C62.2927 31.4208 62.3867 31.213 62.3867 30.9963V21.5356C62.3867 21.195 62.1556 20.8903 61.8076 20.7702L36.3297 12.0521C36.1284 11.9826 35.9064 11.9826 35.7051 12.0521L10.2281 20.771C10.0936 20.721 9.94783 20.7017 9.80339 20.715C9.65894 20.7282 9.52021 20.7735 9.39921 20.8469C9.27822 20.9204 9.17863 21.0197 9.10908 21.1364C9.03952 21.2531 9.00211 21.3835 9.00009 21.5164C8.99806 21.6493 9.03148 21.7807 9.09745 21.8991C9.16342 22.0175 9.25995 22.1193 9.37865 22.1958C9.49736 22.2723 9.63466 22.3212 9.77865 22.3381C9.92263 22.355 10.0689 22.3395 10.2049 22.2929L18.8299 25.496V38.1051C18.8299 41.3704 27.744 42.8571 36.0263 42.8571C44.3087 42.8571 53.2228 41.3704 53.2228 38.1051V25.688L57.8123 24.037C57.9215 23.998 58.0211 23.9396 58.1056 23.8652C58.19 23.7908 58.2576 23.7019 58.3044 23.6035C58.3512 23.5051 58.3764 23.3993 58.3785 23.292C58.3805 23.1847 58.3594 23.0781 58.3164 22.9783C58.2737 22.8784 58.21 22.7871 58.1287 22.7098C58.0475 22.6325 57.9503 22.5706 57.8429 22.5277C57.7355 22.4849 57.6199 22.4618 57.5027 22.4599C57.3855 22.458 57.2691 22.4774 57.1601 22.5168L36.0219 30.1173L12.9984 21.5667L36.0174 13.6883L60.6031 22.1026V30.9963C60.6029 31.1036 60.6258 31.2099 60.6705 31.309C60.7152 31.4082 60.7808 31.4983 60.8636 31.5742C60.9464 31.6501 61.0448 31.7103 61.153 31.7513C61.2613 31.7923 61.3773 31.8134 61.4945 31.8133ZM36.0174 31.8133C36.128 31.8133 36.2387 31.7945 36.344 31.7569L51.4393 26.3285V38.1043C51.4393 39.163 45.9995 41.2225 36.0272 41.2225C26.055 41.2225 20.6152 39.163 20.6152 38.1043V26.1586L35.6819 31.7536C35.789 31.7936 35.9032 31.8133 36.0174 31.8133Z" fill="#FF5773"/>
</svg>
