<svg width="308" height="54" viewBox="0 0 308 54" fill="none" xmlns="http://www.w3.org/2000/svg">
<path d="M235.713 36H233.889C233.653 36 233.427 36.0748 233.26 36.2081C233.094 36.3413 233 36.522 233 36.7104C233 36.8988 233.094 37.0795 233.26 37.2127C233.427 37.3459 233.653 37.4208 233.889 37.4208H235.713C235.949 37.4208 236.175 37.3459 236.342 37.2127C236.509 37.0795 236.603 36.8988 236.603 36.7104C236.603 36.522 236.509 36.3413 236.342 36.2081C236.175 36.0748 235.949 36 235.713 36ZM243.594 36.0611H241.77C241.534 36.0611 241.308 36.1359 241.142 36.2692C240.975 36.4024 240.881 36.5831 240.881 36.7715C240.881 36.9599 240.975 37.1406 241.142 37.2738C241.308 37.407 241.534 37.4819 241.77 37.4819H243.594C243.83 37.4819 244.056 37.407 244.223 37.2738C244.39 37.1406 244.484 36.9599 244.484 36.7715C244.484 36.5831 244.39 36.4024 244.223 36.2692C244.056 36.1359 243.83 36.0611 243.594 36.0611ZM238.83 37.6573C238.594 37.6573 238.368 37.7322 238.201 37.8654C238.035 37.9986 237.941 38.1793 237.941 38.3677V39.8247C237.941 40.0132 238.035 40.1938 238.201 40.3271C238.368 40.4603 238.594 40.5351 238.83 40.5351C239.066 40.5351 239.292 40.4603 239.459 40.3271C239.626 40.1938 239.72 40.0132 239.72 39.8247V38.3677C239.72 38.1793 239.626 37.9986 239.459 37.8654C239.292 37.7322 239.066 37.6573 238.83 37.6573Z" fill="#FF5773"/>
<path d="M57.3315 29.4541V36.792H59.4067V39H46.7729V29.4541H57.3315ZM50.2426 36.792H53.9614V31.3301H50.2426V36.792ZM56.4516 25.3867L54.3764 27.4785L52.3012 25.4033L50.226 27.4785L48.1342 25.3867L50.226 23.3115L52.3012 25.3867L54.3764 23.3115L56.4516 25.3867ZM78.5649 36.792V39H59.4233V36.792H73.269V33.3555L71.227 31.5127H61.8969V29.5703H73.0698L76.7885 33.2393V36.792H78.5649ZM72.1899 42.4697L70.1147 44.5615L68.0229 42.4697L70.1147 40.3945L72.1899 42.4697ZM81.1381 29.4541H91.6967V39H78.5815V36.792H81.1381V29.4541ZM88.227 36.792V31.3301H84.5083V36.792H88.227ZM104.081 36.792V39H101.774V40.1787L98.1049 44.3125H94.9838V42.5195H96.727L98.4038 40.5938V29.7197H101.774V36.792H104.081ZM112.947 39H104.081V36.792H109.527V29.5371H112.947V39ZM109.46 42.4697L107.385 44.5615L105.293 42.4697L107.385 40.3945L109.46 42.4697Z" fill="#FF5773"/>
<path d="M147.511 39H130.528L126.709 35.2148V29.5371H130.063V35.0156L132.005 36.792H144.091V29.5371H147.511V39ZM141.302 25.8848L139.227 27.9766L137.152 25.9014L135.077 27.9766L132.985 25.8848L135.077 23.8096L137.152 25.8848L139.227 23.8096L141.302 25.8848ZM156.625 36.792V39H150.798V18.2812H154.268V36.792H156.625ZM178.357 39H156.642V36.792H160.195V29.5371H163.665V36.792H167.632V29.5371H171.102V36.792H174.937V29.5371H178.357V39ZM186.292 40.1787L182.623 44.3125H179.502V42.5195H181.246L182.922 40.5938V29.7197H186.292V40.1787ZM189.58 29.4707H200.188V36.792H202.147V39H200.188V39.9131L196.37 44.0967H191.256V42.3203H194.992L196.768 40.4277V39H189.58V29.4707ZM193.165 31.4629V36.792H196.884V31.4629H193.165ZM224.725 36.792H226.867V39H202.164V36.792H221.239V33.3555H205.301V28.3916L209.02 24.7227H220.193V26.6484H210.813L208.788 28.4912V31.1973H224.725V36.792Z" fill="black"/>
<path d="M237.892 33.8133C237.656 33.8133 237.429 33.7272 237.261 33.574C237.094 33.4208 237 33.213 237 32.9963V23.5356C237 23.195 237.231 22.8903 237.579 22.7702L263.057 14.0521C263.258 13.9826 263.48 13.9826 263.682 14.0521L289.159 22.771C289.293 22.721 289.439 22.7017 289.583 22.715C289.728 22.7282 289.866 22.7735 289.987 22.8469C290.108 22.9204 290.208 23.0197 290.278 23.1364C290.347 23.2531 290.385 23.3835 290.387 23.5164C290.389 23.6493 290.355 23.7807 290.289 23.8991C290.223 24.0175 290.127 24.1193 290.008 24.1958C289.889 24.2723 289.752 24.3212 289.608 24.3381C289.464 24.355 289.318 24.3395 289.182 24.2929L280.557 27.496V40.1051C280.557 43.3704 271.643 44.8571 263.36 44.8571C255.078 44.8571 246.164 43.3704 246.164 40.1051V27.688L241.574 26.037C241.465 25.998 241.366 25.9396 241.281 25.8652C241.197 25.7908 241.129 25.7019 241.082 25.6035C241.035 25.5051 241.01 25.3993 241.008 25.292C241.006 25.1847 241.027 25.0781 241.07 24.9783C241.113 24.8784 241.177 24.7871 241.258 24.7098C241.339 24.6325 241.436 24.5706 241.544 24.5277C241.651 24.4849 241.767 24.4618 241.884 24.4599C242.001 24.458 242.118 24.4774 242.227 24.5168L263.365 32.1173L286.388 23.5667L263.369 15.6883L238.784 24.1026V32.9963C238.784 33.1036 238.761 33.2099 238.716 33.309C238.671 33.4082 238.606 33.4983 238.523 33.5742C238.44 33.6501 238.342 33.7103 238.234 33.7513C238.125 33.7923 238.009 33.8134 237.892 33.8133ZM263.369 33.8133C263.259 33.8133 263.148 33.7945 263.043 33.7569L247.947 28.3285V40.1043C247.947 41.163 253.387 43.2225 263.359 43.2225C273.332 43.2225 278.771 41.163 278.771 40.1043V28.1586L263.705 33.7536C263.598 33.7936 263.483 33.8133 263.369 33.8133Z" fill="#FF5773"/>
</svg>
